{
	"asset":{
		"generator":"Khronos glTF Blender I/O v4.4.56",
		"version":"2.0"
	},
	"extensionsUsed":[
		"KHR_materials_specular"
	],
	"scene":0,
	"scenes":[
		{
			"name":"Scene",
			"nodes":[
				0
			]
		}
	],
	"nodes":[
		{
			"mesh":0,
			"name":"Cube"
		}
	],
	"materials":[
		{
			"doubleSided":true,
			"name":"Material.002",
			"pbrMetallicRoughness":{
				"baseColorTexture":{
					"index":0
				},
				"metallicFactor":0
			}
		},
		{
			"doubleSided":true,
			"extensions":{
				"KHR_materials_specular":{
					"specularFactor":0.4727272093296051
				}
			},
			"name":"Material.001",
			"pbrMetallicRoughness":{
				"baseColorFactor":[
					0.017513858154416084,
					0.01170407421886921,
					0.009083898738026619,
					1
				],
				"metallicFactor":0,
				"roughnessFactor":0.07727271318435669
			}
		}
	],
	"meshes":[
		{
			"name":"Cube.001",
			"primitives":[
				{
					"attributes":{
						"POSITION":0,
						"NORMAL":1,
						"TEXCOORD_0":2
					},
					"indices":3,
					"material":0
				},
				{
					"attributes":{
						"POSITION":4,
						"NORMAL":5,
						"TEXCOORD_0":6
					},
					"indices":7,
					"material":1
				}
			]
		}
	],
	"textures":[
		{
			"sampler":0,
			"source":0
		}
	],
	"images":[
		{
			"mimeType":"image/png",
			"name":"CHR_BLACKBEAR_FUR",
			"uri":"textures/CHR_BLACKBEAR_FUR.png"
		}
	],
	"accessors":[
		{
			"bufferView":0,
			"componentType":5126,
			"count":2255,
			"max":[
				0.34472358226776123,
				1.1532683372497559,
				0.99544358253479
			],
			"min":[
				-0.34472358226776123,
				0.011322198435664177,
				-0.9879912734031677
			],
			"type":"VEC3"
		},
		{
			"bufferView":1,
			"componentType":5126,
			"count":2255,
			"type":"VEC3"
		},
		{
			"bufferView":2,
			"componentType":5126,
			"count":2255,
			"type":"VEC2"
		},
		{
			"bufferView":3,
			"componentType":5123,
			"count":3816,
			"type":"SCALAR"
		},
		{
			"bufferView":4,
			"componentType":5126,
			"count":44,
			"max":[
				0.08947557210922241,
				0.7556266784667969,
				-0.8562456369400024
			],
			"min":[
				-0.08947557210922241,
				0.7324638366699219,
				-0.8735677003860474
			],
			"type":"VEC3"
		},
		{
			"bufferView":5,
			"componentType":5126,
			"count":44,
			"type":"VEC3"
		},
		{
			"bufferView":6,
			"componentType":5126,
			"count":44,
			"type":"VEC2"
		},
		{
			"bufferView":7,
			"componentType":5123,
			"count":48,
			"type":"SCALAR"
		}
	],
	"bufferViews":[
		{
			"buffer":0,
			"byteLength":27060,
			"byteOffset":0,
			"target":34962
		},
		{
			"buffer":0,
			"byteLength":27060,
			"byteOffset":27060,
			"target":34962
		},
		{
			"buffer":0,
			"byteLength":18040,
			"byteOffset":54120,
			"target":34962
		},
		{
			"buffer":0,
			"byteLength":7632,
			"byteOffset":72160,
			"target":34963
		},
		{
			"buffer":0,
			"byteLength":528,
			"byteOffset":79792,
			"target":34962
		},
		{
			"buffer":0,
			"byteLength":528,
			"byteOffset":80320,
			"target":34962
		},
		{
			"buffer":0,
			"byteLength":352,
			"byteOffset":80848,
			"target":34962
		},
		{
			"buffer":0,
			"byteLength":96,
			"byteOffset":81200,
			"target":34963
		}
	],
	"samplers":[
		{
			"magFilter":9729,
			"minFilter":9987
		}
	],
	"buffers":[
		{
			"byteLength":81296,
			"uri":"bear.bin"
		}
	]
}
