{
	"asset":{
		"generator":"Khronos glTF Blender I/O v4.4.56",
		"version":"2.0"
	},
	"scene":0,
	"scenes":[
		{
			"name":"Scene",
			"nodes":[
				0
			]
		}
	],
	"nodes":[
		{
			"mesh":0,
			"name":"Cube",
			"scale":[
				1.1902333498001099,
				1.1902333498001099,
				1.1902333498001099
			]
		}
	],
	"materials":[
		{
			"doubleSided":true,
			"name":"Material",
			"pbrMetallicRoughness":{
				"baseColorTexture":{
					"index":0
				},
				"metallicFactor":0.9272727370262146,
				"roughnessFactor":0.6227272748947144
			}
		}
	],
	"meshes":[
		{
			"name":"Cube",
			"primitives":[
				{
					"attributes":{
						"POSITION":0,
						"NORMAL":1,
						"TEXCOORD_0":2
					},
					"indices":3,
					"material":0
				}
			]
		}
	],
	"textures":[
		{
			"sampler":0,
			"source":0
		}
	],
	"images":[
		{
			"mimeType":"image/jpeg",
			"name":"MET_METALBEDRUSTWHITE",
			"uri":"Textures/MET_METALBEDRUSTWHITE.jpg"
		}
	],
	"accessors":[
		{
			"bufferView":0,
			"componentType":5126,
			"count":1174,
			"max":[
				1.0543949604034424,
				1.5431321859359741,
				2.0511131286621094
			],
			"min":[
				-1.0543949604034424,
				0.003213167190551758,
				-2.0576772689819336
			],
			"type":"VEC3"
		},
		{
			"bufferView":1,
			"componentType":5126,
			"count":1174,
			"type":"VEC3"
		},
		{
			"bufferView":2,
			"componentType":5126,
			"count":1174,
			"type":"VEC2"
		},
		{
			"bufferView":3,
			"componentType":5123,
			"count":2124,
			"type":"SCALAR"
		}
	],
	"bufferViews":[
		{
			"buffer":0,
			"byteLength":14088,
			"byteOffset":0,
			"target":34962
		},
		{
			"buffer":0,
			"byteLength":14088,
			"byteOffset":14088,
			"target":34962
		},
		{
			"buffer":0,
			"byteLength":9392,
			"byteOffset":28176,
			"target":34962
		},
		{
			"buffer":0,
			"byteLength":4248,
			"byteOffset":37568,
			"target":34963
		}
	],
	"samplers":[
		{
			"magFilter":9729,
			"minFilter":9987
		}
	],
	"buffers":[
		{
			"byteLength":41816,
			"uri":"bed.bin"
		}
	]
}
