{
	"asset":{
		"generator":"Khronos glTF Blender I/O v4.4.56",
		"version":"2.0"
	},
	"scene":0,
	"scenes":[
		{
			"name":"Scene",
			"nodes":[
				0
			]
		}
	],
	"nodes":[
		{
			"mesh":0,
			"name":"Plane",
			"translation":[
				34.88777160644531,
				0,
				3.220264434814453
			]
		}
	],
	"materials":[
		{
			"doubleSided":true,
			"name":"Floor",
			"pbrMetallicRoughness":{
				"baseColorTexture":{
					"index":0
				},
				"metallicFactor":0,
				"roughnessFactor":0.5
			}
		},
		{
			"doubleSided":true,
			"name":"Wall",
			"pbrMetallicRoughness":{
				"baseColorTexture":{
					"index":1
				},
				"metallicFactor":0,
				"roughnessFactor":0.5
			}
		},
		{
			"doubleSided":true,
			"name":"Ceiling",
			"pbrMetallicRoughness":{
				"baseColorTexture":{
					"index":2
				},
				"metallicFactor":0,
				"roughnessFactor":0.5
			}
		}
	],
	"meshes":[
		{
			"name":"Plane.005",
			"primitives":[
				{
					"attributes":{
						"POSITION":0,
						"NORMAL":1,
						"TEXCOORD_0":2
					},
					"indices":3,
					"material":0
				},
				{
					"attributes":{
						"POSITION":4,
						"NORMAL":5,
						"TEXCOORD_0":6
					},
					"indices":7,
					"material":1
				},
				{
					"attributes":{
						"POSITION":8,
						"NORMAL":9,
						"TEXCOORD_0":10
					},
					"indices":11,
					"material":2
				}
			]
		}
	],
	"textures":[
		{
			"sampler":0,
			"source":0
		},
		{
			"sampler":0,
			"source":1
		},
		{
			"sampler":0,
			"source":2
		}
	],
	"images":[
		{
			"mimeType":"image/jpeg",
			"name":"fabric-texture-background",
			"uri":"textures/fabric-texture-background.jpg"
		},
		{
			"mimeType":"image/jpeg",
			"name":"popcorn",
			"uri":"textures/popcorn.jpg"
		},
		{
			"mimeType":"image/jpeg",
			"name":"Subtle-Grunge-Texture-1-Seamless",
			"uri":"textures/Subtle-Grunge-Texture-1-Seamless.jpg"
		}
	],
	"accessors":[
		{
			"bufferView":0,
			"componentType":5126,
			"count":81,
			"max":[
				9.5,
				2.001706600189209,
				11.779735565185547
			],
			"min":[
				-40.88777160644531,
				0,
				-43.14282989501953
			],
			"type":"VEC3"
		},
		{
			"bufferView":1,
			"componentType":5126,
			"count":81,
			"type":"VEC3"
		},
		{
			"bufferView":2,
			"componentType":5126,
			"count":81,
			"type":"VEC2"
		},
		{
			"bufferView":3,
			"componentType":5123,
			"count":273,
			"type":"SCALAR"
		},
		{
			"bufferView":4,
			"componentType":5126,
			"count":214,
			"max":[
				9.5,
				10,
				11.779735565185547
			],
			"min":[
				-40.88777160644531,
				0,
				-43.14282989501953
			],
			"type":"VEC3"
		},
		{
			"bufferView":5,
			"componentType":5126,
			"count":214,
			"type":"VEC3"
		},
		{
			"bufferView":6,
			"componentType":5126,
			"count":214,
			"type":"VEC2"
		},
		{
			"bufferView":7,
			"componentType":5123,
			"count":462,
			"type":"SCALAR"
		},
		{
			"bufferView":8,
			"componentType":5126,
			"count":36,
			"max":[
				6.912227630615234,
				10,
				-6.699999809265137
			],
			"min":[
				-40.88777160644531,
				5,
				-43.14282989501953
			],
			"type":"VEC3"
		},
		{
			"bufferView":9,
			"componentType":5126,
			"count":36,
			"type":"VEC3"
		},
		{
			"bufferView":10,
			"componentType":5126,
			"count":36,
			"type":"VEC2"
		},
		{
			"bufferView":11,
			"componentType":5123,
			"count":114,
			"type":"SCALAR"
		}
	],
	"bufferViews":[
		{
			"buffer":0,
			"byteLength":972,
			"byteOffset":0,
			"target":34962
		},
		{
			"buffer":0,
			"byteLength":972,
			"byteOffset":972,
			"target":34962
		},
		{
			"buffer":0,
			"byteLength":648,
			"byteOffset":1944,
			"target":34962
		},
		{
			"buffer":0,
			"byteLength":546,
			"byteOffset":2592,
			"target":34963
		},
		{
			"buffer":0,
			"byteLength":2568,
			"byteOffset":3140,
			"target":34962
		},
		{
			"buffer":0,
			"byteLength":2568,
			"byteOffset":5708,
			"target":34962
		},
		{
			"buffer":0,
			"byteLength":1712,
			"byteOffset":8276,
			"target":34962
		},
		{
			"buffer":0,
			"byteLength":924,
			"byteOffset":9988,
			"target":34963
		},
		{
			"buffer":0,
			"byteLength":432,
			"byteOffset":10912,
			"target":34962
		},
		{
			"buffer":0,
			"byteLength":432,
			"byteOffset":11344,
			"target":34962
		},
		{
			"buffer":0,
			"byteLength":288,
			"byteOffset":11776,
			"target":34962
		},
		{
			"buffer":0,
			"byteLength":228,
			"byteOffset":12064,
			"target":34963
		}
	],
	"samplers":[
		{
			"magFilter":9729,
			"minFilter":9987
		}
	],
	"buffers":[
		{
			"byteLength":12292,
			"uri":"dungeon0.bin"
		}
	]
}
