{
	"asset":{
		"generator":"Khronos glTF Blender I/O v4.4.56",
		"version":"2.0"
	},
	"scene":0,
	"scenes":[
		{
			"name":"Scene",
			"nodes":[
				0,
				1
			]
		}
	],
	"nodes":[
		{
			"mesh":0,
			"name":"Cylinder"
		},
		{
			"mesh":1,
			"name":"Cylinder.001"
		}
	],
	"materials":[
		{
			"doubleSided":true,
			"name":"metal2",
			"pbrMetallicRoughness":{
				"baseColorTexture":{
					"index":0
				},
				"metallicFactor":0,
				"roughnessFactor":0.5
			}
		},
		{
			"doubleSided":true,
			"name":"metal1",
			"pbrMetallicRoughness":{
				"baseColorTexture":{
					"index":1
				},
				"metallicFactor":0,
				"roughnessFactor":0.5
			}
		},
		{
			"doubleSided":true,
			"name":"metal3",
			"pbrMetallicRoughness":{
				"baseColorTexture":{
					"index":2
				},
				"metallicFactor":0,
				"roughnessFactor":0.5
			}
		}
	],
	"meshes":[
		{
			"name":"Cylinder",
			"primitives":[
				{
					"attributes":{
						"POSITION":0,
						"NORMAL":1,
						"TEXCOORD_0":2
					},
					"indices":3,
					"material":0
				},
				{
					"attributes":{
						"POSITION":4,
						"NORMAL":5,
						"TEXCOORD_0":6
					},
					"indices":7,
					"material":1
				},
				{
					"attributes":{
						"POSITION":8,
						"NORMAL":9,
						"TEXCOORD_0":10
					},
					"indices":11,
					"material":2
				}
			]
		},
		{
			"name":"Cylinder.017",
			"primitives":[
				{
					"attributes":{
						"POSITION":12,
						"NORMAL":13,
						"TEXCOORD_0":14
					},
					"indices":15,
					"material":1
				}
			]
		}
	],
	"textures":[
		{
			"sampler":0,
			"source":0
		},
		{
			"sampler":0,
			"source":1
		},
		{
			"sampler":0,
			"source":2
		}
	],
	"images":[
		{
			"mimeType":"image/jpeg",
			"name":"39_old dirty metal texture-seamless",
			"uri":"textures/39_old%20dirty%20metal%20texture-seamless.jpg"
		},
		{
			"mimeType":"image/jpeg",
			"name":"29_iron metal texture-seamless",
			"uri":"textures/29_iron%20metal%20texture-seamless.jpg"
		},
		{
			"mimeType":"image/jpeg",
			"name":"metal1",
			"uri":"textures/metal1.jpg"
		}
	],
	"accessors":[
		{
			"bufferView":0,
			"componentType":5126,
			"count":410,
			"max":[
				0.43149998784065247,
				5,
				0.03633001819252968
			],
			"min":[
				-0.43149998784065247,
				-0.9999999403953552,
				-0.03633001819252968
			],
			"type":"VEC3"
		},
		{
			"bufferView":1,
			"componentType":5126,
			"count":410,
			"type":"VEC3"
		},
		{
			"bufferView":2,
			"componentType":5126,
			"count":410,
			"type":"VEC2"
		},
		{
			"bufferView":3,
			"componentType":5123,
			"count":912,
			"type":"SCALAR"
		},
		{
			"bufferView":4,
			"componentType":5126,
			"count":16,
			"max":[
				0.14547011256217957,
				4.939999103546143,
				0.18448606133460999
			],
			"min":[
				0.08606243133544922,
				-1.0004501342773438,
				0.10606241226196289
			],
			"type":"VEC3"
		},
		{
			"bufferView":5,
			"componentType":5126,
			"count":16,
			"type":"VEC3"
		},
		{
			"bufferView":6,
			"componentType":5126,
			"count":16,
			"type":"VEC2"
		},
		{
			"bufferView":7,
			"componentType":5123,
			"count":24,
			"type":"SCALAR"
		},
		{
			"bufferView":8,
			"componentType":5126,
			"count":27,
			"max":[
				-0.10233665257692337,
				4.939999580383301,
				0.17963199317455292
			],
			"min":[
				-0.19766336679458618,
				-0.9999997615814209,
				0.0843052789568901
			],
			"type":"VEC3"
		},
		{
			"bufferView":9,
			"componentType":5126,
			"count":27,
			"type":"VEC3"
		},
		{
			"bufferView":10,
			"componentType":5126,
			"count":27,
			"type":"VEC2"
		},
		{
			"bufferView":11,
			"componentType":5123,
			"count":48,
			"type":"SCALAR"
		},
		{
			"bufferView":12,
			"componentType":5126,
			"count":281,
			"max":[
				0.7864033579826355,
				10,
				0.38640323281288147
			],
			"min":[
				-0.786403238773346,
				3.9000000953674316,
				-1.1864032745361328
			],
			"type":"VEC3"
		},
		{
			"bufferView":13,
			"componentType":5126,
			"count":281,
			"type":"VEC3"
		},
		{
			"bufferView":14,
			"componentType":5126,
			"count":281,
			"type":"VEC2"
		},
		{
			"bufferView":15,
			"componentType":5123,
			"count":816,
			"type":"SCALAR"
		}
	],
	"bufferViews":[
		{
			"buffer":0,
			"byteLength":4920,
			"byteOffset":0,
			"target":34962
		},
		{
			"buffer":0,
			"byteLength":4920,
			"byteOffset":4920,
			"target":34962
		},
		{
			"buffer":0,
			"byteLength":3280,
			"byteOffset":9840,
			"target":34962
		},
		{
			"buffer":0,
			"byteLength":1824,
			"byteOffset":13120,
			"target":34963
		},
		{
			"buffer":0,
			"byteLength":192,
			"byteOffset":14944,
			"target":34962
		},
		{
			"buffer":0,
			"byteLength":192,
			"byteOffset":15136,
			"target":34962
		},
		{
			"buffer":0,
			"byteLength":128,
			"byteOffset":15328,
			"target":34962
		},
		{
			"buffer":0,
			"byteLength":48,
			"byteOffset":15456,
			"target":34963
		},
		{
			"buffer":0,
			"byteLength":324,
			"byteOffset":15504,
			"target":34962
		},
		{
			"buffer":0,
			"byteLength":324,
			"byteOffset":15828,
			"target":34962
		},
		{
			"buffer":0,
			"byteLength":216,
			"byteOffset":16152,
			"target":34962
		},
		{
			"buffer":0,
			"byteLength":96,
			"byteOffset":16368,
			"target":34963
		},
		{
			"buffer":0,
			"byteLength":3372,
			"byteOffset":16464,
			"target":34962
		},
		{
			"buffer":0,
			"byteLength":3372,
			"byteOffset":19836,
			"target":34962
		},
		{
			"buffer":0,
			"byteLength":2248,
			"byteOffset":23208,
			"target":34962
		},
		{
			"buffer":0,
			"byteLength":1632,
			"byteOffset":25456,
			"target":34963
		}
	],
	"samplers":[
		{
			"magFilter":9729,
			"minFilter":9987
		}
	],
	"buffers":[
		{
			"byteLength":27088,
			"uri":"Ladder1.bin"
		}
	]
}
