{
	"asset":{
		"generator":"Khronos glTF Blender I/O v4.4.56",
		"version":"2.0"
	},
	"extensionsUsed":[
		"KHR_materials_specular"
	],
	"scene":0,
	"scenes":[
		{
			"name":"Scene",
			"nodes":[
				0,
				1
			]
		}
	],
	"nodes":[
		{
			"mesh":0,
			"name":"Lid",
			"translation":[
				0,
				0.8623823523521423,
				0
			]
		},
		{
			"mesh":1,
			"name":"Body"
		}
	],
	"animations":[
		{
			"channels":[
				{
					"sampler":0,
					"target":{
						"node":0,
						"path":"translation"
					}
				},
				{
					"sampler":1,
					"target":{
						"node":0,
						"path":"rotation"
					}
				},
				{
					"sampler":2,
					"target":{
						"node":0,
						"path":"scale"
					}
				}
			],
			"name":"Open",
			"samplers":[
				{
					"input":8,
					"interpolation":"LINEAR",
					"output":9
				},
				{
					"input":8,
					"interpolation":"LINEAR",
					"output":10
				},
				{
					"input":11,
					"interpolation":"STEP",
					"output":12
				}
			]
		},
		{
			"channels":[
				{
					"sampler":0,
					"target":{
						"node":1,
						"path":"translation"
					}
				},
				{
					"sampler":1,
					"target":{
						"node":1,
						"path":"rotation"
					}
				},
				{
					"sampler":2,
					"target":{
						"node":1,
						"path":"scale"
					}
				}
			],
			"name":"BodyAction",
			"samplers":[
				{
					"input":13,
					"interpolation":"LINEAR",
					"output":14
				},
				{
					"input":13,
					"interpolation":"LINEAR",
					"output":15
				},
				{
					"input":13,
					"interpolation":"LINEAR",
					"output":16
				}
			]
		}
	],
	"materials":[
		{
			"doubleSided":true,
			"extensions":{
				"KHR_materials_specular":{
					"specularFactor":0
				}
			},
			"name":"Pot",
			"pbrMetallicRoughness":{
				"baseColorTexture":{
					"index":0
				},
				"metallicFactor":0
			}
		}
	],
	"meshes":[
		{
			"name":"Cylinder.002",
			"primitives":[
				{
					"attributes":{
						"POSITION":0,
						"NORMAL":1,
						"TEXCOORD_0":2
					},
					"indices":3,
					"material":0
				}
			]
		},
		{
			"name":"Cylinder.001",
			"primitives":[
				{
					"attributes":{
						"POSITION":4,
						"NORMAL":5,
						"TEXCOORD_0":6
					},
					"indices":7,
					"material":0
				}
			]
		}
	],
	"textures":[
		{
			"sampler":0,
			"source":0
		}
	],
	"images":[
		{
			"mimeType":"image/png",
			"name":"STO_ANCIENTBRICK02",
			"uri":"textures/STO_ANCIENTBRICK02.png"
		}
	],
	"accessors":[
		{
			"bufferView":0,
			"componentType":5126,
			"count":371,
			"max":[
				0.40650880336761475,
				0.11090141534805298,
				0.40650877356529236
			],
			"min":[
				-0.4065086543560028,
				-0.12813729047775269,
				-0.40650874376296997
			],
			"type":"VEC3"
		},
		{
			"bufferView":1,
			"componentType":5126,
			"count":371,
			"type":"VEC3"
		},
		{
			"bufferView":2,
			"componentType":5126,
			"count":371,
			"type":"VEC2"
		},
		{
			"bufferView":3,
			"componentType":5123,
			"count":858,
			"type":"SCALAR"
		},
		{
			"bufferView":4,
			"componentType":5126,
			"count":626,
			"max":[
				0.5990723371505737,
				0.7342450022697449,
				0.599072277545929
			],
			"min":[
				-0.5990723371505737,
				0,
				-0.5990723967552185
			],
			"type":"VEC3"
		},
		{
			"bufferView":5,
			"componentType":5126,
			"count":626,
			"type":"VEC3"
		},
		{
			"bufferView":6,
			"componentType":5126,
			"count":626,
			"type":"VEC2"
		},
		{
			"bufferView":7,
			"componentType":5123,
			"count":1056,
			"type":"SCALAR"
		},
		{
			"bufferView":8,
			"componentType":5126,
			"count":65,
			"max":[
				2.6666666666666665
			],
			"min":[
				0
			],
			"type":"SCALAR"
		},
		{
			"bufferView":9,
			"componentType":5126,
			"count":65,
			"type":"VEC3"
		},
		{
			"bufferView":10,
			"componentType":5126,
			"count":65,
			"type":"VEC4"
		},
		{
			"bufferView":11,
			"componentType":5126,
			"count":2,
			"max":[
				2.6666666666666665
			],
			"min":[
				0
			],
			"type":"SCALAR"
		},
		{
			"bufferView":12,
			"componentType":5126,
			"count":2,
			"type":"VEC3"
		},
		{
			"bufferView":13,
			"componentType":5126,
			"count":1,
			"max":[
				0
			],
			"min":[
				0
			],
			"type":"SCALAR"
		},
		{
			"bufferView":14,
			"componentType":5126,
			"count":1,
			"type":"VEC3"
		},
		{
			"bufferView":15,
			"componentType":5126,
			"count":1,
			"type":"VEC4"
		},
		{
			"bufferView":16,
			"componentType":5126,
			"count":1,
			"type":"VEC3"
		}
	],
	"bufferViews":[
		{
			"buffer":0,
			"byteLength":4452,
			"byteOffset":0,
			"target":34962
		},
		{
			"buffer":0,
			"byteLength":4452,
			"byteOffset":4452,
			"target":34962
		},
		{
			"buffer":0,
			"byteLength":2968,
			"byteOffset":8904,
			"target":34962
		},
		{
			"buffer":0,
			"byteLength":1716,
			"byteOffset":11872,
			"target":34963
		},
		{
			"buffer":0,
			"byteLength":7512,
			"byteOffset":13588,
			"target":34962
		},
		{
			"buffer":0,
			"byteLength":7512,
			"byteOffset":21100,
			"target":34962
		},
		{
			"buffer":0,
			"byteLength":5008,
			"byteOffset":28612,
			"target":34962
		},
		{
			"buffer":0,
			"byteLength":2112,
			"byteOffset":33620,
			"target":34963
		},
		{
			"buffer":0,
			"byteLength":260,
			"byteOffset":35732
		},
		{
			"buffer":0,
			"byteLength":780,
			"byteOffset":35992
		},
		{
			"buffer":0,
			"byteLength":1040,
			"byteOffset":36772
		},
		{
			"buffer":0,
			"byteLength":8,
			"byteOffset":37812
		},
		{
			"buffer":0,
			"byteLength":24,
			"byteOffset":37820
		},
		{
			"buffer":0,
			"byteLength":4,
			"byteOffset":37844
		},
		{
			"buffer":0,
			"byteLength":12,
			"byteOffset":37848
		},
		{
			"buffer":0,
			"byteLength":16,
			"byteOffset":37860
		},
		{
			"buffer":0,
			"byteLength":12,
			"byteOffset":37876
		}
	],
	"samplers":[
		{
			"magFilter":9729,
			"minFilter":9987
		}
	],
	"buffers":[
		{
			"byteLength":37888,
			"uri":"pot.bin"
		}
	]
}
