{
	"asset":{
		"generator":"Khronos glTF Blender I/O v4.4.56",
		"version":"2.0"
	},
	"extensionsUsed":[
		"KHR_materials_emissive_strength"
	],
	"scene":0,
	"scenes":[
		{
			"name":"Scene",
			"nodes":[
				0,
				1,
				2,
				3
			]
		}
	],
	"nodes":[
		{
			"mesh":0,
			"name":"PitchPart"
		},
		{
			"mesh":1,
			"name":"YawPart"
		},
		{
			"mesh":2,
			"name":"PositionHandle"
		},
		{
			"mesh":3,
			"name":"Gear"
		}
	],
	"materials":[
		{
			"doubleSided":true,
			"name":"Texture",
			"pbrMetallicRoughness":{
				"baseColorTexture":{
					"index":0
				},
				"metallicFactor":0.949999988079071,
				"roughnessFactor":0.7318181991577148
			}
		},
		{
			"doubleSided":true,
			"emissiveFactor":[
				0.3743414282798767,
				0,
				0
			],
			"name":"Red",
			"pbrMetallicRoughness":{
				"baseColorFactor":[
					0.14444398880004883,
					0,
					0,
					1
				],
				"metallicFactor":0,
				"roughnessFactor":0.5
			}
		},
		{
			"doubleSided":true,
			"emissiveFactor":[
				1,
				1,
				1
			],
			"extensions":{
				"KHR_materials_emissive_strength":{
					"emissiveStrength":128
				}
			},
			"name":"Light",
			"pbrMetallicRoughness":{
				"baseColorFactor":[
					0.800000011920929,
					0.800000011920929,
					0.800000011920929,
					1
				],
				"metallicFactor":0
			}
		}
	],
	"meshes":[
		{
			"name":"Cube.003",
			"primitives":[
				{
					"attributes":{
						"POSITION":0,
						"NORMAL":1,
						"TEXCOORD_0":2
					},
					"indices":3,
					"material":0
				},
				{
					"attributes":{
						"POSITION":4,
						"NORMAL":5,
						"TEXCOORD_0":6
					},
					"indices":7,
					"material":1
				},
				{
					"attributes":{
						"POSITION":8,
						"NORMAL":9,
						"TEXCOORD_0":10
					},
					"indices":11,
					"material":2
				}
			]
		},
		{
			"name":"Cube.004",
			"primitives":[
				{
					"attributes":{
						"POSITION":12,
						"NORMAL":13,
						"TEXCOORD_0":14
					},
					"indices":15,
					"material":0
				}
			]
		},
		{
			"name":"Cube.013",
			"primitives":[
				{
					"attributes":{
						"POSITION":16,
						"NORMAL":17,
						"TEXCOORD_0":18
					},
					"indices":19,
					"material":0
				}
			]
		},
		{
			"name":"Plane",
			"primitives":[
				{
					"attributes":{
						"POSITION":20,
						"NORMAL":21,
						"TEXCOORD_0":22
					},
					"indices":23,
					"material":0
				}
			]
		}
	],
	"textures":[
		{
			"sampler":0,
			"source":0
		}
	],
	"images":[
		{
			"mimeType":"image/jpeg",
			"name":"metal1",
			"uri":"textures/metal1.jpg"
		}
	],
	"accessors":[
		{
			"bufferView":0,
			"componentType":5126,
			"count":175,
			"max":[
				1.11525559425354,
				1.4005826711654663,
				1.7144508361816406
			],
			"min":[
				-1.1152557134628296,
				-1.540018081665039,
				-1.0125147104263306
			],
			"type":"VEC3"
		},
		{
			"bufferView":1,
			"componentType":5126,
			"count":175,
			"type":"VEC3"
		},
		{
			"bufferView":2,
			"componentType":5126,
			"count":175,
			"type":"VEC2"
		},
		{
			"bufferView":3,
			"componentType":5123,
			"count":306,
			"type":"SCALAR"
		},
		{
			"bufferView":4,
			"componentType":5126,
			"count":46,
			"max":[
				0.7203531861305237,
				0.6603592038154602,
				-0.8700934648513794
			],
			"min":[
				0.5987825989723206,
				0.5387890934944153,
				-0.9871158003807068
			],
			"type":"VEC3"
		},
		{
			"bufferView":5,
			"componentType":5126,
			"count":46,
			"type":"VEC3"
		},
		{
			"bufferView":6,
			"componentType":5126,
			"count":46,
			"type":"VEC2"
		},
		{
			"bufferView":7,
			"componentType":5123,
			"count":96,
			"type":"SCALAR"
		},
		{
			"bufferView":8,
			"componentType":5126,
			"count":4,
			"max":[
				0.5550199747085571,
				0.48634809255599976,
				-0.7696515321731567
			],
			"min":[
				-0.5550198554992676,
				-0.6244149804115295,
				-0.7696515321731567
			],
			"type":"VEC3"
		},
		{
			"bufferView":9,
			"componentType":5126,
			"count":4,
			"type":"VEC3"
		},
		{
			"bufferView":10,
			"componentType":5126,
			"count":4,
			"type":"VEC2"
		},
		{
			"bufferView":11,
			"componentType":5123,
			"count":6,
			"type":"SCALAR"
		},
		{
			"bufferView":12,
			"componentType":5126,
			"count":156,
			"max":[
				1.8388493061065674,
				2.314126968383789,
				0.7350522875785828
			],
			"min":[
				-2.398129463195801,
				-0.15887314081192017,
				-0.13311685621738434
			],
			"type":"VEC3"
		},
		{
			"bufferView":13,
			"componentType":5126,
			"count":156,
			"type":"VEC3"
		},
		{
			"bufferView":14,
			"componentType":5126,
			"count":156,
			"type":"VEC2"
		},
		{
			"bufferView":15,
			"componentType":5123,
			"count":306,
			"type":"SCALAR"
		},
		{
			"bufferView":16,
			"componentType":5126,
			"count":70,
			"max":[
				0.5134300589561462,
				3.9771223068237305,
				0.3512434661388397
			],
			"min":[
				-0.5127101540565491,
				1.6448079347610474,
				-0.3493076264858246
			],
			"type":"VEC3"
		},
		{
			"bufferView":17,
			"componentType":5126,
			"count":70,
			"type":"VEC3"
		},
		{
			"bufferView":18,
			"componentType":5126,
			"count":70,
			"type":"VEC2"
		},
		{
			"bufferView":19,
			"componentType":5123,
			"count":132,
			"type":"SCALAR"
		},
		{
			"bufferView":20,
			"componentType":5126,
			"count":110,
			"max":[
				0.46346524357795715,
				4.440227508544922,
				0.2779386043548584
			],
			"min":[
				-0.46274539828300476,
				3.514017105102539,
				-0.2779386043548584
			],
			"type":"VEC3"
		},
		{
			"bufferView":21,
			"componentType":5126,
			"count":110,
			"type":"VEC3"
		},
		{
			"bufferView":22,
			"componentType":5126,
			"count":110,
			"type":"VEC2"
		},
		{
			"bufferView":23,
			"componentType":5123,
			"count":288,
			"type":"SCALAR"
		}
	],
	"bufferViews":[
		{
			"buffer":0,
			"byteLength":2100,
			"byteOffset":0,
			"target":34962
		},
		{
			"buffer":0,
			"byteLength":2100,
			"byteOffset":2100,
			"target":34962
		},
		{
			"buffer":0,
			"byteLength":1400,
			"byteOffset":4200,
			"target":34962
		},
		{
			"buffer":0,
			"byteLength":612,
			"byteOffset":5600,
			"target":34963
		},
		{
			"buffer":0,
			"byteLength":552,
			"byteOffset":6212,
			"target":34962
		},
		{
			"buffer":0,
			"byteLength":552,
			"byteOffset":6764,
			"target":34962
		},
		{
			"buffer":0,
			"byteLength":368,
			"byteOffset":7316,
			"target":34962
		},
		{
			"buffer":0,
			"byteLength":192,
			"byteOffset":7684,
			"target":34963
		},
		{
			"buffer":0,
			"byteLength":48,
			"byteOffset":7876,
			"target":34962
		},
		{
			"buffer":0,
			"byteLength":48,
			"byteOffset":7924,
			"target":34962
		},
		{
			"buffer":0,
			"byteLength":32,
			"byteOffset":7972,
			"target":34962
		},
		{
			"buffer":0,
			"byteLength":12,
			"byteOffset":8004,
			"target":34963
		},
		{
			"buffer":0,
			"byteLength":1872,
			"byteOffset":8016,
			"target":34962
		},
		{
			"buffer":0,
			"byteLength":1872,
			"byteOffset":9888,
			"target":34962
		},
		{
			"buffer":0,
			"byteLength":1248,
			"byteOffset":11760,
			"target":34962
		},
		{
			"buffer":0,
			"byteLength":612,
			"byteOffset":13008,
			"target":34963
		},
		{
			"buffer":0,
			"byteLength":840,
			"byteOffset":13620,
			"target":34962
		},
		{
			"buffer":0,
			"byteLength":840,
			"byteOffset":14460,
			"target":34962
		},
		{
			"buffer":0,
			"byteLength":560,
			"byteOffset":15300,
			"target":34962
		},
		{
			"buffer":0,
			"byteLength":264,
			"byteOffset":15860,
			"target":34963
		},
		{
			"buffer":0,
			"byteLength":1320,
			"byteOffset":16124,
			"target":34962
		},
		{
			"buffer":0,
			"byteLength":1320,
			"byteOffset":17444,
			"target":34962
		},
		{
			"buffer":0,
			"byteLength":880,
			"byteOffset":18764,
			"target":34962
		},
		{
			"buffer":0,
			"byteLength":576,
			"byteOffset":19644,
			"target":34963
		}
	],
	"samplers":[
		{
			"magFilter":9729,
			"minFilter":9987
		}
	],
	"buffers":[
		{
			"byteLength":20220,
			"uri":"prisonLight.bin"
		}
	]
}
