{
	"asset":{
		"generator":"Khronos glTF Blender I/O v4.4.56",
		"version":"2.0"
	},
	"extensionsUsed":[
		"EXT_texture_webp"
	],
	"extensionsRequired":[
		"EXT_texture_webp"
	],
	"scene":0,
	"scenes":[
		{
			"name":"Scene",
			"nodes":[
				0
			]
		}
	],
	"nodes":[
		{
			"mesh":0,
			"name":"Cube"
		}
	],
	"materials":[
		{
			"doubleSided":true,
			"name":"Ceramic",
			"pbrMetallicRoughness":{
				"baseColorTexture":{
					"index":0
				},
				"metallicFactor":0,
				"roughnessFactor":0.5
			}
		},
		{
			"doubleSided":true,
			"name":"Metal",
			"pbrMetallicRoughness":{
				"baseColorTexture":{
					"index":1
				},
				"metallicFactor":0.7636363506317139,
				"roughnessFactor":0.6727272868156433
			}
		}
	],
	"meshes":[
		{
			"name":"Cube",
			"primitives":[
				{
					"attributes":{
						"POSITION":0,
						"NORMAL":1,
						"TEXCOORD_0":2
					},
					"indices":3,
					"material":0
				},
				{
					"attributes":{
						"POSITION":4,
						"NORMAL":5,
						"TEXCOORD_0":6
					},
					"indices":7,
					"material":1
				}
			]
		}
	],
	"textures":[
		{
			"extensions":{
				"EXT_texture_webp":{
					"source":0
				}
			},
			"sampler":0
		},
		{
			"sampler":0,
			"source":1
		}
	],
	"images":[
		{
			"mimeType":"image/webp",
			"name":"STO_CERAMICOLDGRUNGEY",
			"uri":"textures/STO_CERAMICOLDGRUNGEY.webp"
		},
		{
			"mimeType":"image/jpeg",
			"name":"MET_OLDDIRTYMETALGREEN_SEAMLESS",
			"uri":"textures/MET_OLDDIRTYMETALGREEN_SEAMLESS.jpg"
		}
	],
	"accessors":[
		{
			"bufferView":0,
			"componentType":5126,
			"count":304,
			"max":[
				0.4622553884983063,
				0.44765692949295044,
				0.2641068398952484
			],
			"min":[
				-0.4622553884983063,
				-0.1326143443584442,
				-0.36455148458480835
			],
			"type":"VEC3"
		},
		{
			"bufferView":1,
			"componentType":5126,
			"count":304,
			"type":"VEC3"
		},
		{
			"bufferView":2,
			"componentType":5126,
			"count":304,
			"type":"VEC2"
		},
		{
			"bufferView":3,
			"componentType":5123,
			"count":630,
			"type":"SCALAR"
		},
		{
			"bufferView":4,
			"componentType":5126,
			"count":224,
			"max":[
				0.0747315064072609,
				0.35397571325302124,
				0.2641068398952484
			],
			"min":[
				-0.07473151385784149,
				-0.3975636661052704,
				-0.14863891899585724
			],
			"type":"VEC3"
		},
		{
			"bufferView":5,
			"componentType":5126,
			"count":224,
			"type":"VEC3"
		},
		{
			"bufferView":6,
			"componentType":5126,
			"count":224,
			"type":"VEC2"
		},
		{
			"bufferView":7,
			"componentType":5123,
			"count":468,
			"type":"SCALAR"
		}
	],
	"bufferViews":[
		{
			"buffer":0,
			"byteLength":3648,
			"byteOffset":0,
			"target":34962
		},
		{
			"buffer":0,
			"byteLength":3648,
			"byteOffset":3648,
			"target":34962
		},
		{
			"buffer":0,
			"byteLength":2432,
			"byteOffset":7296,
			"target":34962
		},
		{
			"buffer":0,
			"byteLength":1260,
			"byteOffset":9728,
			"target":34963
		},
		{
			"buffer":0,
			"byteLength":2688,
			"byteOffset":10988,
			"target":34962
		},
		{
			"buffer":0,
			"byteLength":2688,
			"byteOffset":13676,
			"target":34962
		},
		{
			"buffer":0,
			"byteLength":1792,
			"byteOffset":16364,
			"target":34962
		},
		{
			"buffer":0,
			"byteLength":936,
			"byteOffset":18156,
			"target":34963
		}
	],
	"samplers":[
		{
			"magFilter":9729,
			"minFilter":9987
		}
	],
	"buffers":[
		{
			"byteLength":19092,
			"uri":"PrisonSink.bin"
		}
	]
}
