{
	"asset":{
		"generator":"Khronos glTF Blender I/O v4.4.56",
		"version":"2.0"
	},
	"scene":0,
	"scenes":[
		{
			"name":"Scene",
			"nodes":[
				0,
				1,
				2
			]
		}
	],
	"nodes":[
		{
			"mesh":0,
			"name":"Rim"
		},
		{
			"mesh":1,
			"name":"Door"
		},
		{
			"mesh":2,
			"name":"Handle"
		}
	],
	"materials":[
		{
			"doubleSided":true,
			"name":"PrisonDoor",
			"pbrMetallicRoughness":{
				"baseColorTexture":{
					"index":0
				},
				"metallicFactor":0.7181817889213562,
				"roughnessFactor":0.699999988079071
			}
		},
		{
			"doubleSided":true,
			"name":"Gate",
			"pbrMetallicRoughness":{
				"baseColorTexture":{
					"index":1
				},
				"metallicFactor":0.5136363506317139,
				"roughnessFactor":0.2909091114997864
			}
		},
		{
			"doubleSided":true,
			"name":"Wall",
			"pbrMetallicRoughness":{
				"baseColorTexture":{
					"index":2
				},
				"metallicFactor":0
			}
		}
	],
	"meshes":[
		{
			"name":"Plane.001",
			"primitives":[
				{
					"attributes":{
						"POSITION":0,
						"NORMAL":1,
						"TEXCOORD_0":2
					},
					"indices":3,
					"material":0
				}
			]
		},
		{
			"name":"Plane.002",
			"primitives":[
				{
					"attributes":{
						"POSITION":4,
						"NORMAL":5,
						"TEXCOORD_0":6
					},
					"indices":7,
					"material":0
				},
				{
					"attributes":{
						"POSITION":8,
						"NORMAL":9,
						"TEXCOORD_0":10
					},
					"indices":11,
					"material":1
				}
			]
		},
		{
			"name":"Cube.001",
			"primitives":[
				{
					"attributes":{
						"POSITION":12,
						"NORMAL":13,
						"TEXCOORD_0":14
					},
					"indices":15,
					"material":2
				}
			]
		}
	],
	"textures":[
		{
			"sampler":0,
			"source":0
		},
		{
			"sampler":0,
			"source":1
		},
		{
			"sampler":0,
			"source":2
		}
	],
	"images":[
		{
			"mimeType":"image/jpeg",
			"name":"21_eroded scratch metal texture-seamless",
			"uri":"textures/21_eroded%20scratch%20metal%20texture-seamless.jpg"
		},
		{
			"mimeType":"image/png",
			"name":"94_iron industrial perforate metal texture-seamless",
			"uri":"textures/94_iron%20industrial%20perforate%20metal%20texture-seamless.png"
		},
		{
			"mimeType":"image/jpeg",
			"name":"metal1",
			"uri":"textures/metal1.jpg"
		}
	],
	"accessors":[
		{
			"bufferView":0,
			"componentType":5126,
			"count":36,
			"max":[
				1.276998519897461,
				3.5765788555145264,
				0.19865036010742188
			],
			"min":[
				-1.2769994735717773,
				0.000789037614595145,
				-0.19865036010742188
			],
			"type":"VEC3"
		},
		{
			"bufferView":1,
			"componentType":5126,
			"count":36,
			"type":"VEC3"
		},
		{
			"bufferView":2,
			"componentType":5126,
			"count":36,
			"type":"VEC2"
		},
		{
			"bufferView":3,
			"componentType":5123,
			"count":72,
			"type":"SCALAR"
		},
		{
			"bufferView":4,
			"componentType":5126,
			"count":63,
			"max":[
				1.1817067861557007,
				3.4872677326202393,
				0.1961459219455719
			],
			"min":[
				-1.1817067861557007,
				0.01857203245162964,
				-0.1961459219455719
			],
			"type":"VEC3"
		},
		{
			"bufferView":5,
			"componentType":5126,
			"count":63,
			"type":"VEC3"
		},
		{
			"bufferView":6,
			"componentType":5126,
			"count":63,
			"type":"VEC2"
		},
		{
			"bufferView":7,
			"componentType":5123,
			"count":120,
			"type":"SCALAR"
		},
		{
			"bufferView":8,
			"componentType":5126,
			"count":4,
			"max":[
				0.7237981557846069,
				2.821194887161255,
				-7.450580596923828e-09
			],
			"min":[
				-0.7237981557846069,
				1.5450782775878906,
				-7.450580596923828e-09
			],
			"type":"VEC3"
		},
		{
			"bufferView":9,
			"componentType":5126,
			"count":4,
			"type":"VEC3"
		},
		{
			"bufferView":10,
			"componentType":5126,
			"count":4,
			"type":"VEC2"
		},
		{
			"bufferView":11,
			"componentType":5123,
			"count":6,
			"type":"SCALAR"
		},
		{
			"bufferView":12,
			"componentType":5126,
			"count":153,
			"max":[
				0.6175109148025513,
				1.2662537097930908,
				0.39723339676856995
			],
			"min":[
				-0.6094093322753906,
				1.1768803596496582,
				0.02051037922501564
			],
			"type":"VEC3"
		},
		{
			"bufferView":13,
			"componentType":5126,
			"count":153,
			"type":"VEC3"
		},
		{
			"bufferView":14,
			"componentType":5126,
			"count":153,
			"type":"VEC2"
		},
		{
			"bufferView":15,
			"componentType":5123,
			"count":576,
			"type":"SCALAR"
		}
	],
	"bufferViews":[
		{
			"buffer":0,
			"byteLength":432,
			"byteOffset":0,
			"target":34962
		},
		{
			"buffer":0,
			"byteLength":432,
			"byteOffset":432,
			"target":34962
		},
		{
			"buffer":0,
			"byteLength":288,
			"byteOffset":864,
			"target":34962
		},
		{
			"buffer":0,
			"byteLength":144,
			"byteOffset":1152,
			"target":34963
		},
		{
			"buffer":0,
			"byteLength":756,
			"byteOffset":1296,
			"target":34962
		},
		{
			"buffer":0,
			"byteLength":756,
			"byteOffset":2052,
			"target":34962
		},
		{
			"buffer":0,
			"byteLength":504,
			"byteOffset":2808,
			"target":34962
		},
		{
			"buffer":0,
			"byteLength":240,
			"byteOffset":3312,
			"target":34963
		},
		{
			"buffer":0,
			"byteLength":48,
			"byteOffset":3552,
			"target":34962
		},
		{
			"buffer":0,
			"byteLength":48,
			"byteOffset":3600,
			"target":34962
		},
		{
			"buffer":0,
			"byteLength":32,
			"byteOffset":3648,
			"target":34962
		},
		{
			"buffer":0,
			"byteLength":12,
			"byteOffset":3680,
			"target":34963
		},
		{
			"buffer":0,
			"byteLength":1836,
			"byteOffset":3692,
			"target":34962
		},
		{
			"buffer":0,
			"byteLength":1836,
			"byteOffset":5528,
			"target":34962
		},
		{
			"buffer":0,
			"byteLength":1224,
			"byteOffset":7364,
			"target":34962
		},
		{
			"buffer":0,
			"byteLength":1152,
			"byteOffset":8588,
			"target":34963
		}
	],
	"samplers":[
		{
			"magFilter":9729,
			"minFilter":9987
		}
	],
	"buffers":[
		{
			"byteLength":9740,
			"uri":"PrisonDoor.bin"
		}
	]
}
