{
	"asset":{
		"generator":"Khronos glTF Blender I/O v4.4.56",
		"version":"2.0"
	},
	"extensionsUsed":[
		"KHR_materials_specular"
	],
	"scene":0,
	"scenes":[
		{
			"name":"Scene",
			"nodes":[
				0,
				1,
				2
			]
		}
	],
	"nodes":[
		{
			"mesh":0,
			"name":"Head"
		},
		{
			"mesh":1,
			"name":"Body"
		},
		{
			"mesh":2,
			"name":"Dress"
		}
	],
	"materials":[
		{
			"doubleSided":true,
			"extensions":{
				"KHR_materials_specular":{
					"specularFactor":0
				}
			},
			"name":"Dark",
			"pbrMetallicRoughness":{
				"baseColorFactor":[
					0,
					0,
					0,
					1
				],
				"metallicFactor":0
			}
		},
		{
			"doubleSided":true,
			"emissiveFactor":[
				1,
				1,
				1
			],
			"name":"Light",
			"pbrMetallicRoughness":{
				"baseColorFactor":[
					0.800000011920929,
					0.800000011920929,
					0.800000011920929,
					1
				],
				"metallicFactor":0
			}
		}
	],
	"meshes":[
		{
			"name":"Sphere.002",
			"primitives":[
				{
					"attributes":{
						"POSITION":0,
						"NORMAL":1,
						"TEXCOORD_0":2
					},
					"indices":3,
					"material":0
				},
				{
					"attributes":{
						"POSITION":4,
						"NORMAL":5,
						"TEXCOORD_0":6
					},
					"indices":7,
					"material":1
				}
			]
		},
		{
			"name":"Cylinder.001",
			"primitives":[
				{
					"attributes":{
						"POSITION":8,
						"NORMAL":9,
						"TEXCOORD_0":10
					},
					"indices":11,
					"material":0
				}
			]
		},
		{
			"name":"Cylinder.002",
			"primitives":[
				{
					"attributes":{
						"POSITION":12,
						"NORMAL":13,
						"TEXCOORD_0":14
					},
					"indices":15,
					"material":0
				}
			]
		}
	],
	"accessors":[
		{
			"bufferView":0,
			"componentType":5126,
			"count":165,
			"max":[
				0.18479934334754944,
				1.982696533203125,
				0.1778634637594223
			],
			"min":[
				-0.1891481876373291,
				1.5897588729858398,
				-0.23815810680389404
			],
			"type":"VEC3"
		},
		{
			"bufferView":1,
			"componentType":5126,
			"count":165,
			"type":"VEC3"
		},
		{
			"bufferView":2,
			"componentType":5126,
			"count":165,
			"type":"VEC2"
		},
		{
			"bufferView":3,
			"componentType":5123,
			"count":756,
			"type":"SCALAR"
		},
		{
			"bufferView":4,
			"componentType":5126,
			"count":43,
			"max":[
				0.14797940850257874,
				1.858128309249878,
				-0.13064809143543243
			],
			"min":[
				-0.14980879426002502,
				1.6521295309066772,
				-0.2348526269197464
			],
			"type":"VEC3"
		},
		{
			"bufferView":5,
			"componentType":5126,
			"count":43,
			"type":"VEC3"
		},
		{
			"bufferView":6,
			"componentType":5126,
			"count":43,
			"type":"VEC2"
		},
		{
			"bufferView":7,
			"componentType":5123,
			"count":120,
			"type":"SCALAR"
		},
		{
			"bufferView":8,
			"componentType":5126,
			"count":309,
			"max":[
				0.23370583355426788,
				1.7927353382110596,
				0.23140260577201843
			],
			"min":[
				-0.23370583355426788,
				1.1497323513031006,
				-0.26237621903419495
			],
			"type":"VEC3"
		},
		{
			"bufferView":9,
			"componentType":5126,
			"count":309,
			"type":"VEC3"
		},
		{
			"bufferView":10,
			"componentType":5126,
			"count":309,
			"type":"VEC2"
		},
		{
			"bufferView":11,
			"componentType":5123,
			"count":504,
			"type":"SCALAR"
		},
		{
			"bufferView":12,
			"componentType":5126,
			"count":133,
			"max":[
				0.36217445135116577,
				1.1889721155166626,
				0.35772964358329773
			],
			"min":[
				-0.3621559739112854,
				0,
				-0.3404071033000946
			],
			"type":"VEC3"
		},
		{
			"bufferView":13,
			"componentType":5126,
			"count":133,
			"type":"VEC3"
		},
		{
			"bufferView":14,
			"componentType":5126,
			"count":133,
			"type":"VEC2"
		},
		{
			"bufferView":15,
			"componentType":5123,
			"count":288,
			"type":"SCALAR"
		}
	],
	"bufferViews":[
		{
			"buffer":0,
			"byteLength":1980,
			"byteOffset":0,
			"target":34962
		},
		{
			"buffer":0,
			"byteLength":1980,
			"byteOffset":1980,
			"target":34962
		},
		{
			"buffer":0,
			"byteLength":1320,
			"byteOffset":3960,
			"target":34962
		},
		{
			"buffer":0,
			"byteLength":1512,
			"byteOffset":5280,
			"target":34963
		},
		{
			"buffer":0,
			"byteLength":516,
			"byteOffset":6792,
			"target":34962
		},
		{
			"buffer":0,
			"byteLength":516,
			"byteOffset":7308,
			"target":34962
		},
		{
			"buffer":0,
			"byteLength":344,
			"byteOffset":7824,
			"target":34962
		},
		{
			"buffer":0,
			"byteLength":240,
			"byteOffset":8168,
			"target":34963
		},
		{
			"buffer":0,
			"byteLength":3708,
			"byteOffset":8408,
			"target":34962
		},
		{
			"buffer":0,
			"byteLength":3708,
			"byteOffset":12116,
			"target":34962
		},
		{
			"buffer":0,
			"byteLength":2472,
			"byteOffset":15824,
			"target":34962
		},
		{
			"buffer":0,
			"byteLength":1008,
			"byteOffset":18296,
			"target":34963
		},
		{
			"buffer":0,
			"byteLength":1596,
			"byteOffset":19304,
			"target":34962
		},
		{
			"buffer":0,
			"byteLength":1596,
			"byteOffset":20900,
			"target":34962
		},
		{
			"buffer":0,
			"byteLength":1064,
			"byteOffset":22496,
			"target":34962
		},
		{
			"buffer":0,
			"byteLength":576,
			"byteOffset":23560,
			"target":34963
		}
	],
	"buffers":[
		{
			"byteLength":24136,
			"uri":"ShadowSlink.bin"
		}
	]
}
