{
	"asset":{
		"generator":"Khronos glTF Blender I/O v4.4.56",
		"version":"2.0"
	},
	"scene":0,
	"scenes":[
		{
			"name":"Scene",
			"nodes":[
				0,
				1,
				2,
				3,
				4,
				5,
				6
			]
		}
	],
	"nodes":[
		{
			"mesh":0,
			"name":"RocketSteer",
			"translation":[
				0,
				0,
				0.2488885372877121
			]
		},
		{
			"mesh":1,
			"name":"RocketFinsVertical"
		},
		{
			"mesh":2,
			"name":"RocketFinsHorizontal"
		},
		{
			"mesh":3,
			"name":"RocketFinsHolder"
		},
		{
			"mesh":4,
			"name":"RocketBody"
		},
		{
			"mesh":5,
			"name":"RocketTube1",
			"translation":[
				0,
				0,
				-0.009259037673473358
			]
		},
		{
			"mesh":6,
			"name":"rocketTube2",
			"translation":[
				0,
				0,
				-0.008888550102710724
			]
		}
	],
	"materials":[
		{
			"doubleSided":true,
			"name":"Rocket",
			"pbrMetallicRoughness":{
				"baseColorTexture":{
					"index":0
				},
				"metallicFactor":0.5727272629737854,
				"roughnessFactor":0.531818151473999
			}
		},
		{
			"doubleSided":true,
			"name":"Fin",
			"pbrMetallicRoughness":{
				"baseColorFactor":[
					0.08477377891540527,
					0.08477377891540527,
					0.08477377891540527,
					1
				],
				"metallicFactor":0.5545454621315002,
				"roughnessFactor":0.2454545497894287
			}
		}
	],
	"meshes":[
		{
			"name":"Cube.005",
			"primitives":[
				{
					"attributes":{
						"POSITION":0,
						"NORMAL":1,
						"TEXCOORD_0":2
					},
					"indices":3,
					"material":0
				}
			]
		},
		{
			"name":"Plane.002",
			"primitives":[
				{
					"attributes":{
						"POSITION":4,
						"NORMAL":5,
						"TEXCOORD_0":6
					},
					"indices":7,
					"material":1
				}
			]
		},
		{
			"name":"Plane.012",
			"primitives":[
				{
					"attributes":{
						"POSITION":8,
						"NORMAL":9,
						"TEXCOORD_0":10
					},
					"indices":11,
					"material":1
				}
			]
		},
		{
			"name":"Plane.007",
			"primitives":[
				{
					"attributes":{
						"POSITION":12,
						"NORMAL":13,
						"TEXCOORD_0":14
					},
					"indices":15,
					"material":0
				}
			]
		},
		{
			"name":"Cylinder.012",
			"primitives":[
				{
					"attributes":{
						"POSITION":16,
						"NORMAL":17,
						"TEXCOORD_0":18
					},
					"indices":19,
					"material":0
				}
			]
		},
		{
			"name":"Cube",
			"primitives":[
				{
					"attributes":{
						"POSITION":20,
						"NORMAL":21,
						"TEXCOORD_0":22
					},
					"indices":23,
					"material":0
				}
			]
		},
		{
			"name":"Cube.001",
			"primitives":[
				{
					"attributes":{
						"POSITION":24,
						"NORMAL":25,
						"TEXCOORD_0":26
					},
					"indices":27,
					"material":0
				}
			]
		}
	],
	"textures":[
		{
			"sampler":0,
			"source":0
		}
	],
	"images":[
		{
			"mimeType":"image/png",
			"name":"OBJ_SLINKROCKET",
			"uri":"textures/OBJ_SLINKROCKET.png"
		}
	],
	"accessors":[
		{
			"bufferView":0,
			"componentType":5126,
			"count":153,
			"max":[
				0.029876479879021645,
				0.029876481741666794,
				0.03583124279975891
			],
			"min":[
				-0.029876479879021645,
				-0.029876481741666794,
				-0.01578451693058014
			],
			"type":"VEC3"
		},
		{
			"bufferView":1,
			"componentType":5126,
			"count":153,
			"type":"VEC3"
		},
		{
			"bufferView":2,
			"componentType":5126,
			"count":153,
			"type":"VEC2"
		},
		{
			"bufferView":3,
			"componentType":5123,
			"count":336,
			"type":"SCALAR"
		},
		{
			"bufferView":4,
			"componentType":5126,
			"count":32,
			"max":[
				9.180787310469896e-05,
				0.10030943155288696,
				0.023805823177099228
			],
			"min":[
				-1.105961564462632e-05,
				-0.10030943155288696,
				-0.060662560164928436
			],
			"type":"VEC3"
		},
		{
			"bufferView":5,
			"componentType":5126,
			"count":32,
			"type":"VEC3"
		},
		{
			"bufferView":6,
			"componentType":5126,
			"count":32,
			"type":"VEC2"
		},
		{
			"bufferView":7,
			"componentType":5123,
			"count":48,
			"type":"SCALAR"
		},
		{
			"bufferView":8,
			"componentType":5126,
			"count":20,
			"max":[
				0.10520944744348526,
				2.2649735420543493e-09,
				0.02177552506327629
			],
			"min":[
				-0.10520944744348526,
				1.5100457551042723e-09,
				-0.06269283592700958
			],
			"type":"VEC3"
		},
		{
			"bufferView":9,
			"componentType":5126,
			"count":20,
			"type":"VEC3"
		},
		{
			"bufferView":10,
			"componentType":5126,
			"count":20,
			"type":"VEC2"
		},
		{
			"bufferView":11,
			"componentType":5123,
			"count":48,
			"type":"SCALAR"
		},
		{
			"bufferView":12,
			"componentType":5126,
			"count":64,
			"max":[
				0.04222531616687775,
				0.03593335673213005,
				-0.030689328908920288
			],
			"min":[
				-0.04222531616687775,
				-0.03593335673213005,
				-0.0820000022649765
			],
			"type":"VEC3"
		},
		{
			"bufferView":13,
			"componentType":5126,
			"count":64,
			"type":"VEC3"
		},
		{
			"bufferView":14,
			"componentType":5126,
			"count":64,
			"type":"VEC2"
		},
		{
			"bufferView":15,
			"componentType":5123,
			"count":96,
			"type":"SCALAR"
		},
		{
			"bufferView":16,
			"componentType":5126,
			"count":629,
			"max":[
				0.03965907171368599,
				0.0396590530872345,
				0.030000001192092896
			],
			"min":[
				-0.03965907171368599,
				-0.039659082889556885,
				-0.16911253333091736
			],
			"type":"VEC3"
		},
		{
			"bufferView":17,
			"componentType":5126,
			"count":629,
			"type":"VEC3"
		},
		{
			"bufferView":18,
			"componentType":5126,
			"count":629,
			"type":"VEC2"
		},
		{
			"bufferView":19,
			"componentType":5123,
			"count":1080,
			"type":"SCALAR"
		},
		{
			"bufferView":20,
			"componentType":5126,
			"count":17,
			"max":[
				0.014845232479274273,
				0.014845235273241997,
				0.14300000667572021
			],
			"min":[
				-0.01484523806720972,
				-0.014845235273241997,
				0.029999997466802597
			],
			"type":"VEC3"
		},
		{
			"bufferView":21,
			"componentType":5126,
			"count":17,
			"type":"VEC3"
		},
		{
			"bufferView":22,
			"componentType":5126,
			"count":17,
			"type":"VEC2"
		},
		{
			"bufferView":23,
			"componentType":5123,
			"count":30,
			"type":"SCALAR"
		},
		{
			"bufferView":24,
			"componentType":5126,
			"count":10,
			"max":[
				0.013193244114518166,
				0.013193247839808464,
				0.2574999928474426
			],
			"min":[
				-0.013193249702453613,
				-0.013193245977163315,
				0.140500009059906
			],
			"type":"VEC3"
		},
		{
			"bufferView":25,
			"componentType":5126,
			"count":10,
			"type":"VEC3"
		},
		{
			"bufferView":26,
			"componentType":5126,
			"count":10,
			"type":"VEC2"
		},
		{
			"bufferView":27,
			"componentType":5123,
			"count":24,
			"type":"SCALAR"
		}
	],
	"bufferViews":[
		{
			"buffer":0,
			"byteLength":1836,
			"byteOffset":0,
			"target":34962
		},
		{
			"buffer":0,
			"byteLength":1836,
			"byteOffset":1836,
			"target":34962
		},
		{
			"buffer":0,
			"byteLength":1224,
			"byteOffset":3672,
			"target":34962
		},
		{
			"buffer":0,
			"byteLength":672,
			"byteOffset":4896,
			"target":34963
		},
		{
			"buffer":0,
			"byteLength":384,
			"byteOffset":5568,
			"target":34962
		},
		{
			"buffer":0,
			"byteLength":384,
			"byteOffset":5952,
			"target":34962
		},
		{
			"buffer":0,
			"byteLength":256,
			"byteOffset":6336,
			"target":34962
		},
		{
			"buffer":0,
			"byteLength":96,
			"byteOffset":6592,
			"target":34963
		},
		{
			"buffer":0,
			"byteLength":240,
			"byteOffset":6688,
			"target":34962
		},
		{
			"buffer":0,
			"byteLength":240,
			"byteOffset":6928,
			"target":34962
		},
		{
			"buffer":0,
			"byteLength":160,
			"byteOffset":7168,
			"target":34962
		},
		{
			"buffer":0,
			"byteLength":96,
			"byteOffset":7328,
			"target":34963
		},
		{
			"buffer":0,
			"byteLength":768,
			"byteOffset":7424,
			"target":34962
		},
		{
			"buffer":0,
			"byteLength":768,
			"byteOffset":8192,
			"target":34962
		},
		{
			"buffer":0,
			"byteLength":512,
			"byteOffset":8960,
			"target":34962
		},
		{
			"buffer":0,
			"byteLength":192,
			"byteOffset":9472,
			"target":34963
		},
		{
			"buffer":0,
			"byteLength":7548,
			"byteOffset":9664,
			"target":34962
		},
		{
			"buffer":0,
			"byteLength":7548,
			"byteOffset":17212,
			"target":34962
		},
		{
			"buffer":0,
			"byteLength":5032,
			"byteOffset":24760,
			"target":34962
		},
		{
			"buffer":0,
			"byteLength":2160,
			"byteOffset":29792,
			"target":34963
		},
		{
			"buffer":0,
			"byteLength":204,
			"byteOffset":31952,
			"target":34962
		},
		{
			"buffer":0,
			"byteLength":204,
			"byteOffset":32156,
			"target":34962
		},
		{
			"buffer":0,
			"byteLength":136,
			"byteOffset":32360,
			"target":34962
		},
		{
			"buffer":0,
			"byteLength":60,
			"byteOffset":32496,
			"target":34963
		},
		{
			"buffer":0,
			"byteLength":120,
			"byteOffset":32556,
			"target":34962
		},
		{
			"buffer":0,
			"byteLength":120,
			"byteOffset":32676,
			"target":34962
		},
		{
			"buffer":0,
			"byteLength":80,
			"byteOffset":32796,
			"target":34962
		},
		{
			"buffer":0,
			"byteLength":48,
			"byteOffset":32876,
			"target":34963
		}
	],
	"samplers":[
		{
			"magFilter":9729,
			"minFilter":9987
		}
	],
	"buffers":[
		{
			"byteLength":32924,
			"uri":"slinkrocket.bin"
		}
	]
}
